<?xml version="1.0" standalone="no"?>
<!DOCTYPE svg PUBLIC "-//W3C//DTD SVG 20010904//EN"
 "http://www.w3.org/TR/2001/REC-SVG-20010904/DTD/svg10.dtd">
<svg version="1.0" xmlns="http://www.w3.org/2000/svg"
 width="1091.000000pt" height="1092.000000pt" viewBox="0 0 1091.000000 1092.000000"
 preserveAspectRatio="xMidYMid meet">

<g transform="translate(0.000000,1092.000000) scale(0.100000,-0.100000)"
fill="#000000" stroke="none">
<path d="M5102 10469 c-244 -20 -564 -76 -832 -145 -704 -183 -1342 -502
-1882 -941 -70 -57 -133 -112 -140 -121 -7 -9 -29 -29 -48 -44 -56 -42 -236
-216 -230 -221 3 -3 31 19 63 48 31 30 88 80 125 112 37 32 69 60 72 64 40 44
378 297 525 393 33 21 71 47 85 56 123 83 438 245 659 340 254 108 651 231
742 229 27 0 18 -5 -46 -25 -44 -14 -102 -34 -130 -44 -27 -10 -90 -32 -140
-50 -245 -88 -591 -240 -566 -248 5 -2 18 1 29 7 18 10 42 -2 42 -20 0 -11
-59 -29 -78 -23 -14 5 -15 4 -2 -5 8 -5 12 -11 10 -13 -3 -2 -27 -15 -55 -29
-52 -27 -151 -80 -220 -119 -22 -12 -53 -32 -70 -44 -16 -13 -37 -25 -45 -29
-10 -3 -7 -6 8 -6 13 -1 32 3 42 9 15 8 20 6 25 -10 3 -11 3 -24 0 -30 -10
-17 11 -11 38 10 14 11 30 20 37 20 6 0 9 4 5 10 -3 5 -12 7 -20 4 -21 -8 -41
6 -24 17 19 12 59 11 59 -1 0 -16 30 -12 36 5 4 9 19 15 35 15 16 0 29 3 29 8
0 6 42 27 160 80 19 9 41 22 48 29 7 6 32 15 57 19 25 3 43 9 41 13 -3 3 13 6
35 6 21 0 39 -3 39 -7 0 -5 7 -8 16 -8 9 0 12 5 8 12 -5 8 -2 9 10 5 10 -4 20
-7 24 -7 19 0 -76 -40 -98 -41 l-25 -2 25 -4 c14 -3 38 2 55 11 16 8 56 25 88
36 31 12 57 25 57 29 0 5 23 11 51 14 28 4 56 10 63 15 6 5 32 15 58 22 26 7
53 19 59 26 6 8 23 14 37 14 32 0 174 39 187 51 5 5 20 9 35 9 38 0 161 29
197 47 18 9 38 13 46 10 17 -6 198 30 210 42 5 5 23 7 41 5 17 -3 69 3 116 11
47 9 99 16 115 16 49 -1 198 20 219 31 12 6 22 6 29 -1 6 -6 34 -10 62 -10 30
1 38 3 20 6 -57 7 -74 13 -100 37 -36 34 -31 39 12 11 40 -28 58 -26 26 3 -20
17 -20 17 18 18 23 1 48 9 59 19 18 16 20 17 20 2 0 -24 13 -21 40 8 16 17 30
23 43 19 19 -6 77 13 77 26 0 8 -216 19 -300 14 -205 -10 -375 -8 -372 4 1 6
-2 12 -8 12 -5 0 -10 4 -10 9 0 9 21 13 180 34 132 18 226 22 520 21 340 -1
566 -24 960 -98 174 -33 504 -132 730 -219 140 -54 524 -237 540 -257 3 -3 20
-16 38 -29 17 -12 32 -28 32 -36 0 -7 13 -19 29 -26 23 -10 27 -16 19 -26 -8
-10 -6 -13 5 -13 8 0 17 -3 19 -8 4 -10 90 -72 99 -72 9 0 177 -113 279 -188
569 -417 1018 -914 1365 -1512 95 -162 245 -471 310 -635 49 -125 162 -461
185 -552 8 -29 17 -50 22 -47 4 3 8 -7 9 -23 0 -15 3 -22 6 -15 9 22 25 13 17
-10 -6 -20 -5 -21 8 -10 14 11 12 28 -19 145 -19 72 -39 148 -44 167 -16 68
-117 346 -170 470 -76 180 -224 471 -302 595 -147 235 -194 305 -318 470 -138
184 -342 417 -528 601 -19 19 -29 34 -22 34 7 0 9 5 6 10 -4 6 -10 8 -15 5 -9
-6 -63 35 -55 43 3 3 16 -5 30 -18 14 -13 25 -19 25 -13 0 9 -128 125 -260
233 -36 30 -67 57 -70 60 -3 3 -23 19 -46 35 -65 48 -134 107 -134 117 0 4 9
8 20 8 11 0 20 7 20 15 0 8 -4 15 -8 15 -5 0 -22 11 -38 25 -16 14 -56 42 -89
62 -33 20 -62 39 -65 42 -12 14 -99 71 -108 71 -6 0 -12 3 -14 8 -1 4 -19 15
-38 26 -315 168 -386 202 -580 281 -308 125 -644 231 -875 275 -60 12 -141 28
-180 36 -38 8 -149 26 -245 40 -153 22 -218 25 -520 29 -190 2 -396 -1 -458
-6z m-1585 -545 c-3 -3 -12 -4 -19 -1 -8 3 -5 6 6 6 11 1 17 -2 13 -5z m-59
-28 c-10 -7 -14 -17 -10 -22 4 -4 -1 -2 -10 5 -22 16 -14 31 15 31 20 -1 21
-2 5 -14z m62 0 c0 -2 -7 -7 -16 -10 -8 -3 -12 -2 -9 4 6 10 25 14 25 6z"/>
<path d="M5898 10253 c7 -3 16 -2 19 1 4 3 -2 6 -13 5 -11 0 -14 -3 -6 -6z"/>
<path d="M3588 9773 c7 -3 16 -2 19 1 4 3 -2 6 -13 5 -11 0 -14 -3 -6 -6z"/>
<path d="M3010 9581 c0 -5 -11 -11 -25 -13 -14 -3 -25 -1 -25 3 0 5 -5 9 -11
9 -5 0 -7 -4 -4 -10 3 -5 -3 -10 -14 -10 -12 0 -21 -4 -21 -10 0 -5 -6 -10
-13 -10 -18 0 -80 -31 -73 -37 2 -2 14 0 25 7 12 6 21 7 21 1 0 -5 9 -7 20 -4
11 3 20 9 20 13 0 10 63 40 84 40 10 0 13 -6 10 -17 -4 -12 1 -9 15 7 25 30
26 40 6 40 -8 0 -15 -4 -15 -9z"/>
<path d="M8330 9550 c0 -5 5 -10 11 -10 5 0 7 5 4 10 -3 6 -8 10 -11 10 -2 0
-4 -4 -4 -10z"/>
<path d="M2960 9520 c0 -5 5 -10 10 -10 6 0 10 5 10 10 0 6 -4 10 -10 10 -5 0
-10 -4 -10 -10z"/>
<path d="M2820 9480 c-13 -9 -13 -10 0 -10 8 0 22 5 30 10 13 9 13 10 0 10 -8
0 -22 -5 -30 -10z"/>
<path d="M2750 9450 c-8 -5 -12 -11 -9 -14 2 -3 11 -1 19 4 8 5 12 11 9 14 -2
3 -11 1 -19 -4z"/>
<path d="M2715 9420 c3 -5 8 -10 11 -10 2 0 4 5 4 10 0 6 -5 10 -11 10 -5 0
-7 -4 -4 -10z"/>
<path d="M1940 8969 c0 -5 5 -7 10 -4 6 3 10 8 10 11 0 2 -4 4 -10 4 -5 0 -10
-5 -10 -11z"/>
<path d="M5481 8573 c2 -80 -8 -131 -48 -253 -49 -148 -87 -217 -130 -232 -18
-7 -40 -22 -48 -35 -19 -28 -116 -92 -169 -110 -21 -8 -72 -18 -112 -23 -126
-16 -365 -73 -400 -95 -12 -8 -57 -21 -100 -29 -91 -18 -151 -40 -279 -102
-50 -24 -104 -44 -121 -44 -58 0 -273 -119 -333 -184 -14 -14 -27 -26 -31 -26
-4 0 -31 -24 -61 -52 -31 -29 -89 -85 -130 -124 -157 -149 -326 -356 -415
-509 -24 -42 -29 -46 -32 -28 -2 12 3 34 10 47 7 14 26 51 42 83 34 67 111
172 193 264 31 35 64 72 73 82 24 30 195 175 245 208 25 17 45 35 45 41 0 14
-17 7 -110 -51 -45 -28 -83 -51 -85 -51 -2 0 -34 -21 -70 -47 -37 -27 -77 -54
-88 -62 -73 -49 -197 -146 -261 -204 -17 -15 -57 -51 -89 -80 -52 -47 -108
-100 -125 -119 -4 -4 -23 -23 -42 -41 -83 -79 -224 -257 -261 -329 -22 -43
-30 -46 -159 -56 l-95 -7 1 -40 c0 -22 19 -101 42 -175 l42 -135 0 -252 0
-253 3115 0 3116 0 -2 264 c-1 145 2 269 5 275 4 6 9 19 11 28 2 10 15 56 30
103 14 47 31 102 38 122 7 25 8 41 1 48 -5 5 -54 14 -109 20 -172 18 -167 16
-221 128 -26 53 -67 122 -90 152 -24 30 -60 77 -81 104 -54 70 -220 245 -285
301 -63 53 -78 65 -78 58 0 -4 -7 3 -16 16 -9 12 -41 38 -71 58 -30 19 -57 41
-60 49 -3 8 -11 14 -18 14 -7 0 -32 15 -56 33 -24 18 -73 50 -109 70 -36 20
-87 50 -115 67 -91 53 -76 27 29 -51 88 -65 120 -94 229 -204 157 -158 264
-307 348 -485 28 -59 33 -78 24 -87 -10 -9 -19 0 -39 40 -78 151 -225 358
-325 458 -25 25 -66 68 -91 94 -24 26 -96 92 -160 145 -63 54 -141 123 -174
154 -32 31 -62 56 -66 56 -5 0 -42 16 -83 35 -90 41 -127 52 -127 36 0 -6 3
-11 8 -11 11 0 92 -68 195 -163 86 -80 211 -217 291 -321 92 -119 236 -387
236 -438 l0 -23 -20 25 c-11 14 -22 33 -26 44 -15 45 -189 321 -224 356 -8 8
-42 49 -75 90 -63 80 -259 280 -388 397 -74 67 -154 115 -251 149 -22 8 -42
11 -45 8 -3 -3 19 -27 49 -52 60 -50 216 -205 266 -264 71 -84 204 -268 204
-283 0 -2 14 -24 30 -49 45 -66 146 -275 154 -316 l6 -35 -30 45 c-16 25 -30
48 -30 51 0 10 -129 230 -154 264 -12 17 -26 37 -29 45 -4 8 -23 35 -42 60
-19 25 -47 63 -62 85 -14 22 -36 51 -48 65 -13 14 -59 66 -102 115 -113 128
-275 276 -330 302 -25 12 -86 31 -136 44 -72 18 -91 19 -97 9 -6 -10 -12 -11
-22 -3 -27 21 -149 55 -191 52 -52 -4 -69 1 -183 57 -57 27 -104 58 -126 82
-19 21 -49 44 -67 51 -38 16 -60 55 -114 201 -31 83 -42 129 -50 218 -8 85
-14 112 -23 108 -8 -3 -16 -1 -19 4 -16 25 -26 5 -24 -47z m706 -785 c105
-107 223 -253 223 -275 0 -6 10 -22 23 -37 31 -36 137 -246 137 -270 0 -11 6
-27 14 -35 7 -9 18 -34 24 -56 6 -22 18 -66 27 -98 9 -33 14 -69 12 -80 -3
-15 -5 -11 -6 11 0 17 -5 32 -11 32 -5 0 -10 10 -10 23 0 12 -7 31 -15 41 -8
11 -15 32 -15 48 0 15 -3 28 -8 28 -7 0 -37 61 -63 130 -8 19 -28 59 -46 89
-18 30 -36 64 -39 75 -4 12 -10 23 -14 26 -3 3 -28 39 -55 80 -26 41 -50 77
-54 80 -3 3 -33 39 -66 80 -33 41 -84 99 -112 130 -29 30 -53 59 -53 63 0 13
50 -27 107 -85z m-175 -83 c37 -56 72 -113 78 -126 6 -13 20 -40 31 -59 12
-19 34 -69 49 -110 15 -41 36 -100 48 -130 21 -57 38 -150 26 -137 -5 4 -9 17
-11 28 -2 11 -12 40 -23 64 -11 24 -20 50 -20 58 0 7 -7 22 -15 33 -8 10 -15
26 -15 34 0 8 -11 35 -24 60 -13 25 -27 56 -31 69 -4 14 -23 48 -41 77 -19 29
-34 57 -34 61 0 5 -16 32 -35 60 -19 29 -35 55 -35 59 0 4 -11 22 -25 40 -29
38 -32 48 -7 33 9 -6 47 -57 84 -114z m377 70 c29 -25 56 -45 60 -45 12 0 229
-223 258 -265 16 -22 36 -49 46 -59 53 -60 196 -298 212 -356 4 -14 13 -32 20
-40 12 -15 21 -45 31 -105 5 -29 4 -29 -10 -11 -9 11 -16 26 -16 32 0 7 -11
30 -25 50 -14 20 -25 43 -25 51 0 26 -146 264 -235 382 -46 60 -360 382 -390
399 -20 11 -20 11 1 12 11 0 44 -20 73 -45z m-2321 -160 c-16 -13 -28 -29 -28
-35 0 -5 -4 -10 -9 -10 -10 0 -230 -222 -293 -296 -77 -91 -132 -165 -213
-289 -32 -49 -61 -92 -64 -95 -3 -3 -21 -35 -40 -72 -18 -38 -37 -65 -42 -62
-5 3 -9 -5 -9 -18 0 -27 -16 -55 -26 -46 -10 11 33 131 73 205 33 61 149 240
163 253 3 3 21 25 40 50 75 96 350 370 372 370 5 0 16 8 26 18 21 21 64 52 72
52 3 0 -7 -12 -22 -25z m1745 -45 c1 -8 6 -21 10 -27 5 -7 4 -13 -1 -13 -13 0
-32 56 -31 89 1 25 1 25 10 -4 5 -16 10 -37 12 -45z m-1584 3 c-9 -2 -21 -15
-27 -28 -8 -16 -17 -23 -27 -19 -8 3 -15 8 -15 11 0 3 7 3 15 -1 8 -3 15 0 15
7 0 18 21 37 40 36 13 -1 13 -2 -1 -6z m-62 -75 c-2 -7 -10 -12 -16 -10 -6 1
-11 -3 -11 -9 0 -7 -10 -20 -22 -30 -11 -11 -18 -19 -14 -19 4 0 -12 -24 -37
-52 -108 -128 -244 -344 -347 -548 -30 -58 -56 -107 -60 -110 -4 -3 -12 -14
-19 -25 -10 -17 -11 -14 -6 24 8 58 129 296 219 430 39 58 74 108 77 111 4 3
30 37 59 75 67 89 150 175 168 175 7 0 12 -6 9 -12z m1670 -10 c-3 -8 -6 -5
-6 6 -1 11 2 17 5 13 3 -3 4 -12 1 -19z m-1506 -41 c-6 -8 -7 -18 -3 -22 4 -5
1 -4 -7 0 -11 6 -13 4 -8 -9 4 -10 3 -15 -3 -11 -6 3 -10 1 -10 -5 0 -6 -15
-32 -32 -58 -36 -52 -53 -79 -64 -102 -4 -8 -11 -17 -15 -20 -12 -9 -74 -135
-160 -323 -12 -26 -32 -78 -45 -115 l-25 -67 6 50 c10 81 27 149 41 165 7 9
20 36 29 60 23 67 54 130 86 178 16 24 29 46 29 49 0 10 94 147 106 155 6 4
23 25 39 48 15 22 32 40 38 40 5 0 5 -5 -2 -13z m197 -142 c-3 -3 -9 2 -12 12
-6 14 -5 15 5 6 7 -7 10 -15 7 -18z m-8 -29 c0 -3 -4 -8 -10 -11 -5 -3 -10 -1
-10 4 0 6 5 11 10 11 6 0 10 -2 10 -4z m-30 -20 c0 -8 -7 -16 -15 -20 -12 -4
-13 -2 -2 14 14 24 17 25 17 6z m-25 -96 c-13 -36 -29 -78 -36 -95 -7 -16 -18
-52 -25 -80 -47 -189 -49 -193 -52 -151 -2 22 2 42 8 46 6 4 10 13 9 21 -1 8
0 25 3 39 4 14 12 52 19 85 7 33 16 62 19 65 4 3 15 31 25 63 10 32 21 53 25
47 5 -7 9 -3 13 11 4 13 8 21 11 18 3 -3 -6 -34 -19 -69z m1812 -102 c-3 -8
-6 -5 -6 6 -1 11 2 17 5 13 3 -3 4 -12 1 -19z m-2937 -398 c0 -5 -4 -10 -10
-10 -5 0 -10 5 -10 10 0 6 5 10 10 10 6 0 10 -4 10 -10z m1960 -128 l-25 -5
25 -8 c14 -4 -60 -8 -165 -8 -268 -2 -404 -7 -960 -36 -840 -42 -873 -44
-1215 -81 -80 -9 -204 -22 -276 -29 -72 -7 -141 -18 -152 -24 -11 -6 -38 -11
-60 -11 -23 0 -45 -6 -52 -15 -17 -21 -25 -19 -40 11 -12 22 -12 27 0 34 8 6
29 10 45 10 17 0 80 9 140 19 61 11 171 25 245 31 74 6 169 15 210 20 41 6
154 17 250 25 96 9 195 19 220 24 25 5 108 13 185 16 77 4 142 9 145 10 3 2
118 6 255 10 138 4 252 9 254 11 2 2 227 3 500 2 273 0 485 -3 471 -6z m1643
-29 c-7 -2 -19 -2 -25 0 -7 3 -2 5 12 5 14 0 19 -2 13 -5z m407 -13 c653 -35
967 -60 1125 -91 28 -5 72 -12 98 -16 27 -3 51 -11 53 -17 2 -6 -5 -36 -17
-66 -11 -30 -25 -77 -31 -105 -5 -27 -16 -57 -24 -66 -11 -12 -14 -43 -12
-125 3 -209 -2 -414 -10 -414 -5 0 -12 93 -15 207 -5 181 -8 209 -24 220 -9 7
-25 13 -35 13 -17 0 -18 -14 -18 -220 l0 -220 -24 0 -24 0 -7 203 c-3 111 -9
210 -12 220 -6 23 -43 37 -65 25 -16 -8 -18 -29 -18 -228 0 -183 -2 -220 -14
-220 -17 0 -23 54 -32 291 -6 154 -6 157 -30 168 -36 16 -62 14 -73 -7 -5 -10
-8 -113 -7 -235 2 -199 1 -217 -15 -217 -15 0 -17 21 -24 218 -3 119 -9 224
-11 234 -6 19 -54 38 -96 38 -20 0 -38 -10 -59 -32 -46 -51 -32 -111 15 -66
24 22 40 23 61 2 13 -14 15 -41 13 -187 -3 -168 -3 -172 -25 -175 -12 -2 -27
-10 -33 -18 -7 -8 -23 -14 -35 -14 -19 0 -23 7 -28 47 -3 26 -1 58 4 72 6 14
6 27 1 30 -5 3 -10 73 -11 154 0 82 -6 157 -11 167 -11 20 -67 40 -113 40 -20
0 -40 -11 -63 -35 -33 -34 -34 -34 -34 -11 0 13 -6 28 -12 34 -17 13 -160 32
-173 22 -9 -6 -32 -6 -90 -1 l-20 2 20 9 c18 8 17 9 -7 9 -16 1 -28 5 -28 10
0 4 10 7 23 5 12 -2 130 -6 262 -9 132 -2 258 -6 280 -8 22 -3 138 -8 259 -12
181 -6 218 -5 214 6 -6 19 -72 37 -138 38 -30 1 -73 6 -95 11 -22 5 -92 12
-155 16 -63 3 -139 10 -169 15 -30 5 -90 9 -133 9 -44 0 -110 5 -148 11 -38 6
-134 14 -212 18 -79 5 -126 9 -105 10 20 0 37 6 37 11 0 14 37 12 43 -2 4 -9
8 -9 14 -3 5 6 65 8 168 3 88 -4 327 -9 530 -11 204 -2 339 -2 300 0 -48 3
-65 7 -55 13 12 8 9 10 -10 10 -14 1 -43 3 -65 5 -225 20 -288 25 -335 30 -78
8 -526 44 -640 51 -52 3 -111 10 -130 14 -52 12 179 11 475 -1 546 -23 730
-19 530 11 -268 40 -357 49 -955 90 -168 11 -185 14 -175 31 5 7 42 8 113 4
59 -4 177 -10 262 -15z m-1990 -70 c0 -6 40 -11 98 -12 53 -1 -112 -5 -368 -9
-256 -3 -512 -11 -570 -17 -58 -6 -181 -13 -275 -16 -264 -9 -599 -26 -721
-36 -60 -6 -138 -10 -172 -10 -35 0 -117 -7 -185 -15 -67 -9 -192 -22 -277
-30 -85 -8 -202 -21 -260 -30 -58 -8 -121 -17 -140 -19 -19 -2 -39 -11 -44
-19 -8 -12 -12 -11 -28 5 -38 38 -25 43 129 56 82 7 166 17 188 22 22 5 85 11
140 14 55 2 132 9 170 15 78 12 457 46 690 61 377 26 525 32 885 38 689 12
740 12 740 2z m115 -119 c107 -8 105 -8 -80 -10 -291 -3 -1038 -26 -1135 -35
-19 -2 -143 -7 -275 -10 -348 -10 -726 -39 -1125 -86 -47 -5 -143 -17 -215
-25 -71 -8 -143 -20 -158 -26 -23 -10 -31 -9 -44 3 -12 12 -13 20 -4 37 12 22
31 29 31 11 0 -6 16 -8 38 -5 93 11 326 36 420 45 57 5 118 12 135 15 18 3
100 10 182 15 83 5 209 16 280 24 200 22 471 38 795 45 443 9 1031 10 1155 2z
m1763 -38 c-21 -2 -57 -2 -80 0 -24 2 -7 4 37 4 44 0 63 -2 43 -4z m-1833 -68
c60 -4 113 -9 119 -12 5 -3 6 -1 2 5 -5 8 1 12 14 12 26 0 17 -18 -15 -30 -39
-15 -41 -42 -25 -338 6 -125 11 -156 25 -172 19 -21 75 -28 75 -10 0 6 -6 10
-14 10 -7 0 -26 10 -40 21 -21 17 -26 27 -21 43 4 11 10 97 14 189 7 190 5
187 86 187 38 0 53 -5 61 -18 7 -11 13 -90 15 -204 4 -183 4 -187 -18 -206
-31 -26 -29 -34 10 -30 29 3 33 7 42 45 6 23 13 45 18 49 4 4 7 35 8 68 0 34
6 100 13 149 7 48 8 87 3 87 -4 0 -5 5 -1 11 4 8 12 1 22 -17 20 -39 22 -41
32 -25 8 13 14 -46 24 -229 4 -81 27 -140 54 -140 9 0 46 -3 82 -5 101 -8 116
-2 123 47 7 51 18 63 45 49 14 -7 23 -8 27 -1 3 6 17 7 29 4 20 -5 24 -1 30
27 3 17 6 86 6 153 0 148 9 170 65 174 77 6 79 0 83 -221 l4 -195 -23 -13
c-13 -7 -50 -12 -81 -11 -32 0 -58 -3 -58 -8 0 -6 8 -10 18 -11 101 -6 150
-19 71 -19 -27 0 -39 -4 -31 -9 20 -12 -1321 -22 -2118 -15 -393 3 -717 8
-720 11 -7 7 -12 382 -6 410 13 49 84 53 105 6 9 -21 14 -23 26 -13 18 15 20
67 3 84 -7 6 -27 18 -45 25 -45 18 -137 -2 -170 -37 -23 -25 -24 -26 -29 -5
-11 41 -137 42 -189 1 -14 -11 -23 -24 -20 -29 4 -5 3 -13 0 -19 -3 -5 -19 4
-35 20 -33 34 -61 37 -120 14 l-40 -16 0 -193 c0 -206 -5 -255 -26 -255 -18 0
-20 23 -14 230 4 102 2 193 -2 203 -10 20 -52 22 -88 4 -28 -14 -27 -5 -29
-279 -1 -133 -3 -158 -16 -158 -13 0 -15 31 -15 218 l0 218 -39 2 c-21 2 -43
-3 -48 -10 -9 -11 -21 -218 -23 -385 0 -31 -4 -43 -15 -43 -8 0 -15 6 -16 13
0 6 0 96 1 198 0 102 -2 193 -6 202 -13 36 -81 12 -87 -30 -2 -12 -6 -26 -10
-29 -9 -10 -9 -66 0 -61 5 3 9 -28 10 -69 0 -41 -3 -74 -7 -74 -5 0 -8 -33 -8
-72 1 -67 -1 -73 -21 -76 l-21 -3 2 227 3 228 45 4 c57 4 68 5 105 3 17 0 77
4 135 10 58 5 120 10 138 9 17 0 41 4 53 10 11 7 60 13 107 16 48 2 100 6 116
10 16 3 66 7 110 9 91 3 290 21 381 35 133 21 598 39 1134 45 216 2 396 7 399
10 4 3 29 4 57 1 27 -3 99 -8 160 -11z m185 -5 c0 -5 -2 -10 -4 -10 -3 0 -8 5
-11 10 -3 6 -1 10 4 10 6 0 11 -4 11 -10z m453 -117 c12 -15 16 -53 18 -202
l4 -185 -28 -17 c-34 -20 -89 -11 -119 19 -18 18 -19 24 -8 77 7 32 10 109 8
177 -3 109 -1 121 16 134 28 20 89 18 109 -3z m665 -21 c9 -11 12 -69 12 -208
l0 -192 -36 -21 c-19 -12 -50 -21 -67 -20 -25 0 -28 2 -13 8 26 10 4 25 -23
16 -14 -4 -23 0 -31 15 -14 26 -5 71 13 67 9 -1 13 39 17 159 3 113 9 166 18
177 25 29 86 29 110 -1z m320 8 c21 -20 22 -28 22 -218 -1 -216 -3 -224 -59
-235 -67 -14 -142 52 -98 86 13 10 17 41 19 180 3 164 4 169 27 188 30 25 62
24 89 -1z m294 -17 c16 -15 18 -35 18 -214 0 -225 -1 -229 -73 -229 -50 0 -63
7 -76 42 -8 21 -7 29 4 35 10 6 14 46 17 181 3 158 5 175 22 188 26 19 65 18
88 -3z m-3957 -451 c-8 -9 -138 -3 -147 6 -14 14 -10 403 4 419 18 22 65 15
93 -14 l25 -28 12 33 c11 29 13 2 16 -189 1 -122 0 -224 -3 -227z m4226 417
c5 -11 8 -94 7 -201 l-3 -183 -28 -13 c-40 -19 -84 -18 -107 3 -22 20 -27 64
-9 82 7 7 10 58 10 135 0 98 3 131 17 158 25 50 90 61 113 19z m213 -11 c13
-18 16 -57 16 -215 l0 -193 -70 0 -70 0 0 33 c0 18 5 38 11 44 14 14 16 93 4
188 -8 63 -9 67 -16 35 -5 -29 -7 -24 -8 28 -1 61 0 62 20 52 11 -7 22 -10 23
-8 1 2 10 15 19 31 21 33 50 35 71 5z m-4723 -45 c20 -56 23 -59 27 -30 2 16
9 26 15 24 9 -2 13 -56 15 -180 l2 -177 -25 0 c-14 0 -25 4 -25 8 0 5 -21 13
-47 18 l-48 9 -3 164 c-3 178 1 191 49 191 23 0 32 -6 40 -27z"/>
<path d="M8440 6240 c20 -13 90 -13 90 0 0 6 -24 10 -52 10 -38 0 -49 -3 -38
-10z"/>
<path d="M4844 6156 c-18 -14 -19 -27 -17 -242 2 -214 3 -228 23 -246 l20 -19
0 198 c0 232 3 243 74 243 69 0 73 -11 78 -185 4 -166 20 -231 31 -126 4 34
10 124 13 200 l7 139 -26 26 c-24 24 -33 26 -105 26 -52 0 -85 -5 -98 -14z"/>
<path d="M5154 6156 c-16 -12 -20 -29 -22 -108 -4 -101 11 -289 25 -310 12
-20 21 62 22 198 1 79 5 126 14 137 8 12 29 18 64 19 84 4 85 2 87 -214 1
-141 -1 -187 -12 -200 -15 -18 2 -38 20 -20 27 27 35 113 40 441 1 32 -4 48
-17 58 -26 19 -194 18 -221 -1z"/>
<path d="M4552 6150 c-27 -12 -42 -46 -35 -84 l6 -28 28 31 c21 23 37 31 63
31 61 0 66 -18 64 -233 -1 -103 1 -189 4 -192 3 -3 12 -3 20 0 17 7 27 122 29
329 1 96 -2 121 -15 134 -19 19 -129 27 -164 12z"/>
<path d="M4283 6135 c-20 -8 -33 -21 -33 -32 0 -10 -1 -112 -1 -227 -1 -193 0
-210 17 -220 43 -24 43 -23 40 182 -1 109 1 207 6 220 12 35 49 47 86 28 18
-9 34 -26 37 -39 3 -12 4 -85 2 -162 -5 -149 0 -216 14 -193 12 20 10 430 -3
445 -14 18 -124 16 -165 -2z"/>
<path d="M4010 6133 c-48 -8 -80 -26 -85 -47 -2 -11 -6 -121 -7 -243 l-4 -223
43 0 c40 0 42 2 35 23 -4 12 -6 110 -4 219 l3 196 25 17 c22 14 31 15 55 5 15
-7 31 -21 35 -32 8 -27 28 -17 32 16 2 19 -4 36 -19 52 -22 24 -46 27 -109 17z"/>
<path d="M3672 6110 c-18 -11 -36 -30 -41 -43 -4 -12 -8 -122 -10 -244 l-2
-223 35 0 c22 0 36 6 40 16 3 9 6 107 6 218 0 216 6 246 51 246 25 0 60 -18
75 -38 9 -13 12 -13 17 2 10 25 -2 65 -23 76 -32 17 -112 12 -148 -10z"/>
<path d="M4120 5786 c0 -44 4 -76 10 -76 6 0 10 30 10 69 0 39 -4 73 -10 76
-6 4 -10 -22 -10 -69z"/>
<path d="M6142 5700 c0 -14 2 -19 5 -12 2 6 2 18 0 25 -3 6 -5 1 -5 -13z"/>
<path d="M6155 5659 c-11 -17 -2 -18 25 -4 24 14 24 14 3 15 -12 0 -25 -5 -28
-11z"/>
<path d="M6153 5623 c15 -2 37 -2 50 0 12 2 0 4 -28 4 -27 0 -38 -2 -22 -4z"/>
<path d="M7681 5944 c0 -11 3 -14 6 -6 3 7 2 16 -1 19 -3 4 -6 -2 -5 -13z"/>
<path d="M10222 6540 c0 -14 2 -19 5 -12 2 6 2 18 0 25 -3 6 -5 1 -5 -13z"/>
<path d="M576 5814 c-15 -38 -27 -344 -21 -509 7 -200 33 -517 45 -560 5 -16
11 -57 15 -90 10 -101 67 -352 123 -550 111 -388 303 -835 477 -1115 181 -291
286 -441 433 -620 584 -712 1356 -1251 2212 -1543 257 -88 580 -170 598 -152
3 3 -4 8 -16 12 -12 3 -22 11 -22 18 0 16 -67 40 -230 82 -119 31 -159 43
-270 81 -297 104 -579 232 -875 401 -22 13 -47 29 -55 35 -8 7 -51 35 -96 64
-44 28 -92 60 -105 71 -67 58 -85 71 -96 71 -20 0 -15 18 5 22 9 2 27 -7 40
-19 23 -23 62 -31 62 -13 0 5 -13 16 -30 25 -29 15 -40 35 -20 35 6 0 10 -4
10 -10 0 -5 9 -10 19 -10 10 0 21 -7 25 -15 3 -8 12 -15 19 -15 8 0 22 -9 32
-20 10 -11 20 -18 23 -15 3 2 19 -5 35 -17 17 -12 45 -29 61 -38 17 -9 58 -33
92 -52 74 -43 361 -184 462 -228 41 -17 89 -34 108 -37 19 -3 34 -10 34 -14 0
-5 7 -9 17 -9 13 0 13 3 -5 17 -11 10 -28 23 -37 28 -9 6 -17 19 -19 30 -2 14
-15 23 -43 30 -23 6 -49 17 -59 26 -24 21 -176 89 -198 89 -9 0 -16 4 -16 9 0
13 -156 101 -179 101 -11 0 -25 9 -31 20 -6 11 -28 29 -50 40 -21 11 -55 31
-76 45 -20 14 -45 25 -55 25 -11 0 -19 4 -19 9 0 14 -163 131 -183 131 -10 0
-20 7 -23 15 -7 17 -158 135 -173 135 -5 0 -17 10 -26 23 -21 31 -147 137
-162 137 -7 0 -13 5 -13 10 0 16 -134 147 -159 155 -11 3 -21 12 -21 19 0 17
-132 156 -147 156 -7 0 -15 10 -19 22 -3 12 -15 30 -24 41 -10 10 -36 41 -57
67 -21 27 -48 53 -60 59 -13 6 -23 17 -23 26 0 20 -96 150 -126 170 -13 8 -24
22 -24 31 0 17 -82 140 -109 164 -10 8 -22 30 -29 47 -12 36 -82 142 -106 162
-9 7 -16 22 -16 33 0 23 -63 143 -91 174 -11 11 -19 27 -19 36 0 25 -82 189
-97 195 -7 3 -13 16 -13 29 0 29 -56 173 -76 195 -8 8 -14 23 -14 33 0 20 -57
185 -69 200 -5 6 -11 27 -14 46 -7 53 -45 173 -57 180 -5 3 -9 17 -8 31 2 32
-30 167 -48 201 -8 14 -12 32 -9 40 3 7 -4 56 -15 108 -12 52 -25 127 -30 165
-13 103 -27 166 -30 135 -2 -24 -3 -23 -10 5 -5 21 -8 24 -10 10 -1 -15 -5
-11 -15 15 l-13 35 -1 -31 c-2 -56 30 -270 64 -434 2 -14 10 -50 15 -80 27
-137 124 -486 160 -574 5 -11 30 -75 55 -141 25 -66 53 -136 61 -155 9 -19 19
-44 24 -55 27 -64 153 -319 211 -427 38 -70 69 -132 69 -138 0 -5 -7 -10 -16
-10 -12 0 -14 -3 -6 -13 12 -14 5 -57 -9 -57 -10 0 -7 60 4 78 14 21 -4 37
-20 17 -11 -16 -13 -16 -13 -3 0 8 -7 21 -15 28 -18 15 -20 -1 -3 -18 6 -6 9
-14 6 -17 -5 -6 -42 47 -116 165 -34 56 -187 362 -235 470 -155 354 -293 862
-341 1260 -9 74 -22 173 -28 220 -6 47 -12 222 -13 390 -3 237 -7 312 -18 339
-12 28 -15 30 -21 15z m854 -2938 c0 -3 -4 -8 -10 -11 -5 -3 -10 -1 -10 4 0 6
5 11 10 11 6 0 10 -2 10 -4z"/>
<path d="M10262 5695 c0 -16 2 -22 5 -12 2 9 2 23 0 30 -3 6 -5 -1 -5 -18z"/>
<path d="M10201 5654 c0 -11 3 -14 6 -6 3 7 2 16 -1 19 -3 4 -6 -2 -5 -13z"/>
<path d="M10262 5590 c-2 -25 -5 -31 -11 -21 -7 10 -8 2 -5 -25 3 -21 1 -57
-5 -79 l-11 -40 4 36 c2 19 1 51 -3 70 l-7 34 -8 -38 c-4 -20 -4 -42 -1 -47 3
-5 1 -27 -4 -48 -6 -21 -15 -110 -21 -198 -13 -218 -35 -387 -81 -629 -26
-137 -90 -401 -108 -446 -5 -13 -17 -50 -26 -82 -15 -50 -19 -56 -30 -41 -9
13 -14 14 -20 4 -4 -7 -2 -16 5 -20 6 -4 10 -18 8 -31 -4 -24 -5 -24 -16 5 -7
16 -15 26 -18 23 -3 -3 2 -19 10 -36 18 -33 21 -54 6 -31 -8 12 -10 10 -9 -10
3 -41 0 -60 -11 -60 -7 0 -7 6 -2 18 12 24 8 70 -8 85 -10 10 -12 9 -7 -5 4
-10 3 -18 -2 -18 -13 0 -60 -122 -59 -153 0 -15 -8 -37 -18 -48 -23 -26 -84
-166 -84 -194 0 -13 -7 -28 -16 -36 -21 -17 -94 -163 -94 -187 0 -10 -9 -27
-19 -36 -11 -10 -36 -52 -57 -94 -46 -95 -41 -87 -89 -158 -51 -75 -75 -120
-75 -138 0 -8 -6 -16 -14 -19 -15 -6 -116 -155 -116 -172 0 -5 -17 -27 -38
-47 -21 -21 -52 -58 -67 -83 -16 -25 -33 -45 -37 -45 -4 0 -8 -8 -8 -17 0 -9
-7 -25 -17 -35 -18 -20 -4 -25 15 -6 10 10 15 10 22 -2 6 -10 12 -11 18 -5 8
9 66 82 102 129 8 10 23 27 33 38 9 10 17 22 17 27 0 5 3 11 8 13 18 8 167
227 248 365 32 54 63 105 70 113 7 8 40 71 74 140 70 140 85 161 108 153 12
-5 14 -2 8 13 -18 42 -18 54 -2 60 9 3 16 15 16 26 0 10 4 17 10 13 5 -3 7
-12 3 -20 -3 -8 0 -15 6 -15 6 0 11 5 11 10 0 16 27 11 34 -6 8 -22 8 -26 -4
-19 -6 4 -10 -5 -10 -19 0 -14 -5 -26 -10 -26 -6 0 -8 -11 -4 -25 4 -15 2 -25
-5 -25 -6 0 -11 -6 -11 -14 0 -17 -146 -304 -166 -327 -8 -8 -14 -19 -14 -24
0 -33 -379 -606 -440 -665 -18 -18 -70 -91 -70 -99 0 -5 7 -14 15 -18 12 -7 9
-14 -16 -41 -16 -17 -34 -32 -40 -32 -5 0 -8 -3 -7 -7 2 -10 -13 -46 -22 -53
-3 -3 -35 -36 -70 -75 -107 -118 -291 -305 -317 -322 -14 -10 -22 -22 -18 -31
3 -9 0 -12 -8 -9 -8 3 -13 -3 -14 -14 -2 -17 0 -18 13 -4 9 8 20 15 25 15 5 0
9 4 9 10 0 12 48 60 60 60 5 0 22 13 38 30 17 16 35 30 41 30 6 0 8 7 5 15 -4
9 0 15 8 15 15 0 257 242 344 345 28 33 69 80 90 105 22 25 64 79 94 120 30
41 57 77 61 80 3 3 27 37 52 75 26 39 50 75 54 80 41 53 84 125 79 134 -5 7
-1 8 10 4 14 -5 16 -3 11 11 -4 10 -3 15 3 11 6 -3 10 -2 10 3 0 5 11 26 25
46 14 21 20 34 13 30 -7 -4 -3 4 10 18 12 13 22 29 22 34 0 6 13 28 30 50 16
21 30 45 30 52 0 7 4 20 9 30 15 28 24 56 22 69 -1 7 6 27 16 45 10 18 18 38
18 43 1 6 12 33 24 60 13 28 34 77 47 110 12 33 27 72 33 87 8 22 7 26 -4 22
-18 -7 -32 61 -16 80 7 8 11 18 10 22 -1 5 2 18 6 29 96 235 204 600 251 850
57 302 88 717 74 980 -3 72 -7 114 -8 95z m-372 -1659 c0 -6 -4 -13 -10 -16
-5 -3 -10 1 -10 9 0 9 5 16 10 16 6 0 10 -4 10 -9z m33 -393 c9 -31 4 -32 -23
-3 -23 24 -23 25 -3 25 13 0 23 -8 26 -22z m-160 -473 c-7 -21 -12 -19 -10 4
0 11 5 18 9 15 4 -3 5 -11 1 -19z m-597 -501 c-3 -8 -10 -14 -15 -14 -5 0 -4
13 2 31 8 21 13 26 15 14 2 -9 1 -23 -2 -31z m-41 -52 c-3 -3 -11 0 -18 7 -9
10 -8 11 6 5 10 -3 15 -9 12 -12z m109 -167 c-4 -8 -11 -15 -16 -15 -6 0 -5 6
2 15 7 8 14 15 16 15 2 0 1 -7 -2 -15z m-58 -52 c-10 -10 -19 5 -10 18 6 11 8
11 12 0 2 -7 1 -15 -2 -18z"/>
<path d="M10411 5285 c-1 -66 -4 -133 -6 -150 -2 -16 -10 -91 -19 -165 -25
-217 -62 -433 -107 -630 -12 -52 -22 -105 -23 -117 0 -13 -5 -23 -9 -23 -5 0
-7 -8 -6 -17 1 -10 0 -25 -3 -33 -18 -51 -30 -101 -26 -106 9 -9 64 171 103
338 39 163 85 443 100 603 9 94 12 320 5 370 -6 39 -8 23 -9 -70z"/>
<path d="M4125 5088 l-39 -63 -3 -180 c-2 -99 1 -216 7 -260 6 -44 15 -136 20
-205 11 -151 16 -198 30 -269 14 -77 12 -332 -5 -423 -16 -95 -37 -130 -121
-203 -35 -32 -63 -60 -60 -62 9 -9 114 66 134 95 69 99 112 219 149 417 17 96
13 216 -21 535 -34 319 -32 344 20 253 34 -59 33 -58 39 -51 3 3 1 18 -5 34
-12 29 -49 202 -76 349 -9 44 -19 84 -23 88 -4 4 -25 -21 -46 -55z"/>
<path d="M5363 5117 c-5 -6 -15 -25 -23 -42 -22 -45 -46 -75 -55 -67 -5 4 -4
1 0 -7 7 -12 18 -128 29 -306 15 -241 29 -370 51 -485 15 -80 35 -249 35 -299
0 -27 -5 -32 -57 -52 -35 -13 -83 -22 -120 -23 -58 -1 -65 2 -94 30 -26 26
-32 42 -35 85 -5 61 -10 79 -22 79 -5 0 -38 -26 -73 -58 -70 -63 -122 -102
-137 -102 -5 0 -17 19 -27 43 -58 133 -154 187 -251 141 -43 -21 -112 -91
-142 -147 -19 -35 -23 -54 -20 -109 4 -76 17 -96 82 -128 54 -26 165 -33 220
-14 50 18 70 12 60 -18 -8 -28 -56 -74 -143 -135 -36 -26 -85 -62 -109 -80
-63 -48 -162 -101 -281 -152 -102 -43 -110 -44 -211 -45 -80 0 -113 4 -140 17
-60 29 -111 78 -131 125 -23 52 -29 185 -11 219 7 12 12 29 12 38 0 9 7 31 15
48 8 18 23 57 34 87 15 43 28 61 61 84 49 33 84 100 101 191 16 87 -2 164 -58
249 l-32 49 -25 -58 c-14 -31 -26 -68 -26 -80 0 -13 18 -58 40 -101 39 -77 40
-79 21 -97 -22 -23 -116 -64 -256 -113 -110 -39 -190 -59 -435 -111 -158 -33
-171 -34 -320 -29 -171 5 -216 15 -316 71 -74 42 -130 106 -150 171 -28 95
-11 219 38 271 12 13 18 26 15 30 -14 13 -56 -41 -101 -130 -94 -188 -87 -314
25 -425 76 -75 238 -151 298 -139 15 3 54 0 87 -6 106 -22 302 -5 497 42 93
23 185 48 204 56 20 8 42 15 50 15 8 0 66 20 130 45 138 54 149 56 130 18 -19
-38 -52 -136 -77 -227 -27 -102 -27 -236 0 -309 39 -105 132 -166 263 -174 76
-5 91 -3 186 30 225 78 579 335 648 471 13 26 28 73 33 105 8 47 15 61 46 86
20 17 55 49 77 73 22 23 46 42 53 42 8 0 15 -22 20 -57 6 -47 3 -71 -16 -128
-13 -38 -29 -82 -37 -97 -20 -42 -31 -261 -16 -333 29 -141 107 -232 236 -276
83 -28 179 -36 230 -20 17 5 46 12 62 15 104 15 148 32 317 116 162 81 297
170 356 233 28 29 61 121 70 196 7 55 8 56 37 53 137 -12 187 4 267 84 l46 46
7 -43 c8 -46 36 -79 85 -99 54 -22 130 19 194 104 l29 39 18 -34 c25 -50 53
-71 102 -76 96 -11 172 40 203 136 19 62 44 82 44 36 0 -33 41 -113 72 -142
53 -49 117 -73 193 -73 82 0 146 18 420 118 349 127 358 129 532 136 l97 4 25
39 c27 40 51 88 51 102 0 5 -52 10 -117 10 -64 1 -119 4 -123 6 -4 3 -43 9
-86 14 -118 15 -287 41 -306 47 -10 3 -30 7 -45 10 -16 2 -48 8 -73 14 -25 5
-70 12 -100 15 -30 4 -73 13 -95 20 l-40 12 67 32 c85 39 323 121 353 121 14
0 25 -7 28 -17 3 -15 6 -13 14 8 10 22 23 28 116 47 57 12 113 22 124 22 11 0
27 8 36 18 21 23 57 108 57 134 0 13 -34 55 -88 108 -76 77 -95 90 -146 105
-54 16 -61 16 -102 0 -54 -20 -80 -52 -100 -123 -15 -51 -15 -71 1 -149 l7
-32 -88 -26 c-95 -29 -102 -32 -236 -93 -149 -69 -203 -109 -232 -172 -48
-103 -51 -99 104 -126 74 -13 164 -30 200 -37 36 -8 120 -23 188 -33 67 -10
122 -22 122 -26 0 -5 -6 -8 -13 -8 -14 0 -26 -4 -257 -86 -128 -45 -140 -48
-235 -48 -116 1 -156 14 -205 70 -54 62 -62 93 -71 289 -4 99 -11 216 -14 260
-3 44 -14 220 -24 391 -11 172 -23 320 -29 330 -5 11 -7 25 -4 33 2 8 -1 12
-8 9 -6 -2 -28 -32 -47 -68 l-36 -64 7 -115 c7 -115 8 -132 20 -266 6 -74 24
-460 30 -658 l4 -117 -34 -27 c-61 -46 -178 -41 -205 8 -5 11 -7 42 -3 71 l6
53 -40 -62 c-45 -68 -104 -117 -161 -133 -28 -8 -43 -6 -71 8 -31 15 -35 21
-34 54 1 21 10 48 23 63 21 27 30 95 12 95 -5 0 -20 -15 -34 -32 -109 -142
-215 -199 -330 -177 -69 13 -122 53 -156 121 -32 63 -31 64 -69 -35 l-18 -49
33 -83 c42 -105 54 -206 28 -235 -53 -58 -373 -234 -500 -274 -27 -8 -75 -23
-105 -32 -74 -23 -227 -23 -295 0 -129 44 -205 121 -244 247 -17 55 -13 106
14 193 33 105 44 120 79 106 41 -15 89 -12 159 11 59 19 127 65 127 86 0 5 6
15 13 22 6 6 12 15 12 19 1 4 6 16 12 27 31 57 47 314 25 420 -18 93 -44 308
-43 370 0 10 -3 24 -8 30 -11 15 -13 78 -2 94 13 21 34 2 63 -57 17 -35 24
-42 26 -27 6 44 -61 302 -82 317 -6 4 -7 8 -1 8 5 0 4 5 -3 12 -7 7 -12 19
-12 28 0 9 -8 32 -19 53 -13 26 -21 33 -28 24z m2862 -617 c17 -11 40 -30 53
-43 l22 -24 -77 -21 c-43 -12 -80 -18 -84 -14 -3 4 -14 29 -23 57 -16 47 -15
51 1 63 21 15 65 8 108 -18z m-3539 -632 c38 -35 43 -43 29 -51 -28 -15 -108
-9 -159 12 -54 24 -56 38 -5 63 55 28 84 23 135 -24z"/>
<path d="M5779 5096 c-7 -14 -15 -24 -18 -21 -4 2 -8 -6 -8 -17 -1 -11 -9 -28
-18 -39 -14 -15 -17 -39 -16 -140 1 -67 4 -125 6 -130 3 -4 7 -34 10 -66 3
-32 12 -125 21 -208 8 -82 19 -190 24 -240 9 -84 23 -206 35 -292 3 -21 8 -67
10 -103 2 -36 10 -114 16 -173 11 -100 9 -175 -6 -237 -6 -23 -5 -23 6 -6 21
33 60 196 73 300 14 113 1 393 -19 426 -3 5 -10 78 -15 162 -6 84 -14 187 -19
228 -24 204 -24 210 -12 210 6 0 21 -16 32 -35 31 -52 39 -42 22 28 -8 34 -18
85 -23 112 -4 28 -18 75 -29 105 -12 30 -21 70 -21 88 0 17 -4 32 -10 32 -5 0
-10 6 -10 14 0 27 -20 28 -31 2z"/>
<path d="M5003 5068 c-40 -46 -40 -96 2 -118 20 -10 22 -16 12 -31 -6 -10 -15
-15 -21 -12 -5 3 -6 1 -2 -5 6 -11 -53 -87 -103 -130 -67 -60 -89 -81 -126
-121 -42 -46 -23 -42 35 8 19 16 55 47 80 68 41 34 68 64 149 164 23 29 24 29
43 12 17 -15 21 -15 28 -3 13 21 13 24 -9 52 -12 15 -18 33 -14 46 3 11 0 37
-7 56 -14 42 -37 47 -67 14z m37 -53 c0 -18 -4 -23 -15 -19 -25 10 -19 33 13
43 1 1 2 -10 2 -24z"/>
<path d="M3554 5069 c-34 -12 -43 -33 -53 -118 -5 -45 -11 -85 -14 -88 -9 -9
-27 7 -27 24 0 29 -44 104 -72 125 -32 22 -43 19 -52 -17 -9 -34 9 -65 37 -65
24 0 52 -38 68 -92 7 -27 5 -34 -16 -54 -15 -14 -25 -34 -25 -51 0 -21 3 -24
12 -15 12 12 48 17 48 7 0 -3 -17 -20 -38 -39 -88 -80 -91 -204 -12 -459 12
-37 25 -102 29 -145 l8 -77 2 91 c1 73 -6 116 -34 227 -19 75 -35 164 -36 197
-2 57 0 63 32 96 20 21 51 40 77 47 31 8 42 17 44 32 3 43 -3 60 -30 81 -25
21 -26 23 -10 41 10 11 19 48 25 98 l8 80 30 0 c34 0 60 33 50 64 -6 19 -20
22 -51 10z"/>
<path d="M8279 5032 c-41 -20 -91 -43 -110 -51 -19 -7 -88 -39 -154 -70 -66
-32 -167 -77 -224 -102 -91 -38 -105 -48 -118 -78 -8 -18 -12 -35 -10 -37 3
-3 50 18 105 45 55 28 124 60 154 71 29 12 98 42 153 67 269 122 255 115 276
155 11 21 16 38 12 37 -5 0 -42 -17 -84 -37z"/>
<path d="M6935 5037 c-14 -22 -36 -128 -35 -174 0 -37 -16 -27 -48 31 -46 81
-123 121 -141 74 -13 -33 9 -63 48 -64 41 -1 61 -21 91 -88 13 -31 27 -56 31
-56 13 0 28 56 34 132 7 85 23 110 55 90 21 -13 24 -10 34 30 5 21 2 30 -13
38 -29 15 -39 13 -56 -13z"/>
<path d="M2860 4915 c-8 -2 -31 -6 -50 -9 -41 -7 -69 -43 -98 -128 -22 -61
-19 -78 7 -48 28 32 194 54 231 30 13 -8 10 -14 -15 -35 -16 -13 -46 -30 -65
-36 -39 -14 -133 -69 -127 -75 2 -3 28 1 58 7 30 6 64 13 75 15 12 2 36 18 53
36 35 35 97 155 107 205 5 28 3 31 -26 37 -32 6 -121 7 -150 1z"/>
<path d="M4568 4729 c-160 -80 -243 -128 -254 -144 -25 -38 -11 -41 41 -11 25
15 137 72 248 127 111 55 209 103 217 108 23 12 25 41 3 40 -10 -1 -125 -55
-255 -120z"/>
<path d="M5077 4714 c-12 -12 -8 -43 9 -76 10 -19 12 -34 6 -40 -13 -13 -39
25 -53 75 -10 39 -29 51 -29 18 0 -11 4 -31 10 -45 12 -32 -6 -78 -29 -74 -14
3 -21 20 -36 91 -3 16 -11 27 -18 24 -18 -6 -21 -47 -3 -60 9 -7 19 -30 24
-51 4 -22 16 -44 25 -50 15 -9 22 -6 41 18 23 28 24 28 50 11 25 -17 26 -17
36 10 5 14 10 34 10 43 0 27 -35 113 -43 106z"/>
<path d="M6397 4633 c-28 -9 -56 -27 -64 -40 -15 -23 -53 -127 -53 -145 0 -15
27 -8 44 11 19 21 47 28 154 37 56 4 72 3 72 -8 0 -12 -64 -59 -175 -127 -27
-17 -47 -31 -43 -31 26 -1 144 34 171 50 61 37 141 176 135 234 l-3 31 -95 2
c-66 1 -110 -3 -143 -14z"/>
<path d="M4623 4413 c4 -21 9 -53 13 -70 4 -18 2 -33 -3 -33 -15 0 -43 57 -43
89 0 21 -5 31 -15 31 -17 0 -19 -27 -5 -66 8 -21 7 -32 -5 -51 -22 -34 -38
-25 -52 30 -15 62 -21 71 -39 56 -16 -13 -19 -59 -4 -59 6 0 10 6 11 13 1 18
27 -55 28 -79 2 -46 61 -32 76 17 6 17 8 17 28 -7 15 -17 28 -23 40 -19 23 9
23 89 1 145 -21 51 -39 53 -31 3z"/>
<path d="M4910 4383 c-63 -85 -64 -81 33 -132 69 -36 83 -32 123 30 31 50 28
77 -11 98 -16 9 -41 24 -55 34 -37 26 -52 21 -90 -30z"/>
<path d="M2992 4373 c-18 -34 -31 -118 -25 -161 5 -34 3 -42 -11 -42 -9 0 -16
5 -16 10 0 17 -81 100 -113 116 -38 20 -53 13 -60 -28 -7 -52 8 -71 50 -63 32
6 38 3 73 -35 21 -23 44 -54 50 -71 25 -59 34 -34 46 124 5 81 7 87 30 93 14
4 31 1 40 -7 13 -10 17 -10 25 2 14 22 11 44 -9 62 -24 22 -69 22 -80 0z"/>
<path d="M8188 3522 c-32 -36 -70 -101 -63 -112 3 -4 40 -26 84 -49 l78 -40
21 22 c20 23 66 107 60 112 -2 1 -21 12 -43 24 -22 12 -56 32 -76 45 l-36 25
-25 -27z"/>
<path d="M3332 3502 c-17 -21 -36 -50 -43 -65 -15 -34 -7 -44 71 -90 l58 -35
19 21 c37 43 73 96 73 109 0 12 -12 21 -106 75 l-42 24 -30 -39z"/>
<path d="M9807 3520 c-3 -13 0 -20 9 -20 15 0 19 26 5 34 -5 3 -11 -3 -14 -14z"/>
<path d="M7270 3440 c-52 -21 -115 -47 -140 -58 -25 -11 -70 -28 -100 -38 -30
-9 -56 -18 -57 -18 -1 -1 -4 -13 -8 -29 -6 -21 -4 -27 9 -27 14 0 354 128 396
149 19 10 26 61 8 60 -7 -1 -56 -18 -108 -39z"/>
<path d="M6922 3458 c-7 -7 -12 -23 -12 -36 0 -20 -4 -23 -27 -20 -22 2 -29
10 -34 33 -5 27 -7 28 -14 10 -23 -58 -64 -69 -120 -35 -33 20 -34 20 -80 2
-26 -10 -73 -39 -104 -65 -75 -60 -208 -150 -274 -184 -67 -36 -39 -42 36 -9
62 27 124 68 205 133 87 71 154 90 200 57 26 -18 88 -12 95 9 3 9 10 9 31 -1
40 -18 64 -15 88 13 48 56 57 140 10 93z"/>
<path d="M9745 3400 c-3 -5 -1 -10 4 -10 6 0 11 5 11 10 0 6 -2 10 -4 10 -3 0
-8 -4 -11 -10z"/>
<path d="M1330 3024 c0 -8 5 -12 10 -9 6 4 8 11 5 16 -9 14 -15 11 -15 -7z"/>
<path d="M9085 2469 c-4 -6 -5 -13 -2 -16 7 -7 27 6 27 18 0 12 -17 12 -25 -2z"/>
<path d="M9015 2390 c-3 -5 -1 -10 4 -10 6 0 11 5 11 10 0 6 -2 10 -4 10 -3 0
-8 -4 -11 -10z"/>
<path d="M9110 2279 c0 -6 -8 -18 -17 -25 -15 -11 -15 -13 -3 -14 19 0 43 37
30 45 -6 3 -10 1 -10 -6z"/>
<path d="M8630 1660 c0 -5 -7 -10 -16 -10 -8 0 -27 -13 -42 -29 -44 -47 -343
-270 -423 -316 -10 -5 -58 -34 -106 -64 -311 -192 -704 -380 -973 -467 -30 -9
-50 -19 -45 -21 11 -3 142 42 350 121 211 80 554 260 790 413 88 58 275 191
296 212 9 9 31 27 49 41 18 14 39 30 45 37 7 7 16 9 20 5 4 -4 6 0 3 8 -3 9 8
24 29 38 29 20 44 42 28 42 -3 0 -5 -4 -5 -10z"/>
<path d="M2771 1476 c10 -10 59 -14 59 -5 0 5 -14 9 -32 9 -17 0 -29 -2 -27
-4z"/>
<path d="M3645 1140 c10 -12 25 -18 32 -16 7 3 13 -1 13 -9 0 -8 5 -15 10 -15
6 0 10 4 10 8 0 14 -23 32 -42 32 -10 0 -18 5 -18 10 0 6 -5 10 -12 10 -6 0
-3 -9 7 -20z"/>
<path d="M6910 720 c-18 -12 -2 -12 25 0 13 6 15 9 5 9 -8 0 -22 -4 -30 -9z"/>
<path d="M6858 703 c7 -3 16 -2 19 1 4 3 -2 6 -13 5 -11 0 -14 -3 -6 -6z"/>
<path d="M6742 676 c-45 -13 -80 -25 -76 -28 5 -5 38 2 137 32 20 6 37 13 37
15 0 7 -3 6 -98 -19z"/>
<path d="M6608 633 c7 -3 16 -2 19 1 4 3 -2 6 -13 5 -11 0 -14 -3 -6 -6z"/>
<path d="M6548 623 c6 -2 18 -2 25 0 6 3 1 5 -13 5 -14 0 -19 -2 -12 -5z"/>
</g>
</svg>
